<svg width="2302" height="1967" viewBox="0 0 2302 1967" fill="none" xmlns="http://www.w3.org/2000/svg">
<path d="M2298.04 1487.09C2292.14 1484.29 2286.44 1480.89 2280.74 1477.69C2279.34 1476.89 2277.94 1476.09 2276.44 1475.29C2275.64 1474.89 2274.84 1474.49 2274.04 1474.09C2273.14 1473.79 2272.24 1473.39 2271.44 1473.09C2270.54 1472.69 2269.74 1472.39 2268.84 1471.99C2264.14 1470.09 2258.74 1467.29 2253.84 1465.59C2252.84 1465.39 2251.94 1465.19 2251.04 1465.19C2246.44 1464.79 2242.34 1465.99 2239.64 1470.09C2234.14 1479.69 2236.94 1493.39 2232.74 1505.59C2232.44 1506.69 2232.24 1507.79 2231.94 1508.89C2231.64 1509.99 2231.34 1511.09 2231.14 1512.19C2230.94 1511.89 2230.74 1511.59 2230.54 1511.29C2227.64 1506.89 2224.94 1502.29 2222.14 1497.79C2217.34 1490.19 2211.74 1482.09 2204.04 1477.19C2202.94 1476.49 2201.74 1475.89 2200.54 1475.29C2194.54 1472.79 2189.04 1478.29 2189.14 1484.29C2188.84 1485.79 2188.54 1487.29 2188.24 1488.79C2187.64 1491.79 2186.94 1494.79 2186.24 1497.79C2185.94 1498.99 2185.64 1500.19 2185.34 1501.39C2183.44 1510.09 2179.34 1516.99 2175.24 1525.19C2169.74 1521.09 2162.24 1518.99 2157.34 1514.69C2156.44 1514.09 2155.54 1513.39 2154.74 1512.79C2152.14 1510.79 2149.84 1508.59 2147.44 1505.79C2144.94 1502.89 2139.74 1503.09 2137.24 1505.79C2134.44 1508.89 2134.64 1512.89 2137.24 1515.99C2140.94 1520.39 2145.54 1523.99 2150.34 1527.29C2151.54 1528.09 2152.74 1528.89 2154.04 1529.69C2160.84 1533.99 2167.04 1541.59 2174.54 1540.89C2190.24 1541.59 2193.74 1520.29 2198.74 1507.19C2199.04 1506.09 2199.34 1505.09 2199.54 1503.99C2200.34 1500.79 2201.04 1497.59 2201.74 1494.29C2202.14 1494.69 2202.44 1495.09 2202.84 1495.49C2203.24 1495.89 2203.54 1496.39 2203.94 1496.89C2204.04 1496.99 2204.14 1497.09 2204.14 1497.19C2204.14 1497.19 2204.24 1497.29 2204.24 1497.39C2204.94 1498.39 2205.64 1499.39 2206.34 1500.39C2207.84 1502.59 2209.24 1504.79 2210.64 1506.99C2216.04 1515.69 2221.14 1525.09 2228.84 1532.09C2233.14 1535.99 2239.04 1533.99 2240.94 1528.79C2242.54 1524.39 2243.94 1519.99 2245.14 1515.49C2245.54 1513.99 2245.94 1512.49 2246.24 1510.99C2246.64 1506.59 2248.44 1502.59 2250.24 1498.59C2250.54 1497.89 2250.84 1497.29 2251.14 1496.59C2253.24 1492.09 2253.24 1483.89 2260.74 1484.59C2266.94 1485.29 2271.74 1488.69 2276.64 1492.19C2277.34 1492.59 2277.94 1492.99 2278.64 1493.39C2282.64 1495.69 2286.64 1497.99 2290.84 1499.89C2294.34 1501.59 2298.64 1500.79 2300.74 1497.19C2302.54 1493.69 2301.54 1488.69 2298.04 1487.09Z" fill="white"/>
<path d="M2137.54 1412.49C2151.54 1395.99 2165.54 1379.49 2179.54 1362.99C2173.94 1362.29 2168.34 1361.59 2162.84 1360.79C2170.24 1373.79 2177.54 1386.79 2184.94 1399.79C2188.64 1406.29 2196.54 1408.09 2201.64 1401.99C2215.54 1385.49 2229.44 1369.09 2243.34 1352.59C2251.44 1343.09 2235.84 1331.39 2227.84 1340.89C2213.94 1357.39 2200.04 1373.79 2186.14 1390.29C2191.74 1390.99 2197.34 1391.69 2202.84 1392.49C2195.44 1379.49 2188.14 1366.49 2180.74 1353.49C2177.04 1346.99 2169.14 1345.19 2164.04 1351.29C2150.04 1367.79 2136.04 1384.29 2122.04 1400.79C2113.94 1410.39 2129.54 1421.99 2137.54 1412.49Z" fill="#EAEAEA"/>
<path d="M2160.64 1619.89C2185.04 1624.89 2209.34 1629.89 2233.74 1634.89C2231.44 1629.79 2229.04 1624.79 2226.74 1619.69C2217.74 1634.29 2208.74 1648.89 2199.74 1663.49C2195.64 1670.09 2199.54 1677.19 2206.74 1678.69C2231.04 1683.59 2255.24 1688.59 2279.54 1693.49C2284.64 1694.49 2289.64 1689.59 2290.14 1684.79C2290.64 1679.09 2286.54 1675.19 2281.44 1674.19C2257.14 1669.29 2232.94 1664.29 2208.64 1659.39C2210.94 1664.49 2213.34 1669.49 2215.64 1674.59C2224.64 1659.99 2233.64 1645.39 2242.64 1630.79C2246.74 1624.19 2242.84 1617.09 2235.64 1615.59C2211.24 1610.59 2186.94 1605.59 2162.54 1600.59C2157.44 1599.49 2152.44 1604.49 2151.94 1609.29C2151.44 1614.99 2155.54 1618.89 2160.64 1619.89Z" fill="#EAEAEA"/>
<path d="M178.641 1479.79C177.341 1473.29 176.841 1466.69 176.041 1460.09C175.841 1458.49 175.641 1456.79 175.441 1455.19C175.241 1454.29 175.141 1453.39 174.941 1452.49C174.641 1451.59 174.441 1450.69 174.241 1449.79C174.041 1448.89 173.841 1447.99 173.641 1447.09C172.441 1442.19 171.441 1436.09 169.841 1431.09C169.441 1430.19 168.941 1429.29 168.441 1428.59C165.941 1424.59 162.441 1422.09 157.341 1422.59C145.841 1424.29 135.941 1435.09 123.041 1439.49C121.941 1439.99 120.841 1440.49 119.741 1440.99C118.641 1441.49 117.541 1441.99 116.441 1442.39C116.541 1441.99 116.741 1441.69 116.841 1441.29C118.741 1436.19 121.041 1431.19 123.141 1426.09C126.641 1417.49 130.141 1407.99 129.541 1398.69C129.441 1397.39 129.341 1396.09 129.041 1394.69C127.441 1388.29 119.441 1387.39 114.441 1391.29C112.941 1391.99 111.541 1392.69 110.041 1393.39C107.141 1394.79 104.141 1396.19 101.241 1397.49C100.041 1397.99 98.841 1398.49 97.641 1398.99C89.041 1402.99 80.7411 1403.99 71.3411 1405.89C71.4411 1398.89 68.6411 1391.69 69.3411 1385.09C69.3411 1383.99 69.3411 1382.89 69.3411 1381.79C69.4411 1378.49 69.8411 1375.19 70.7411 1371.59C71.6411 1367.79 68.3411 1363.69 64.5411 1363.49C60.2411 1363.19 56.9411 1365.89 55.8411 1369.99C54.4411 1375.69 54.1411 1381.59 54.3411 1387.59C54.3411 1389.09 54.4411 1390.59 54.5411 1391.99C55.0411 1400.19 52.441 1409.79 57.641 1415.39C66.641 1428.39 86.7411 1417.69 100.941 1413.39C102.041 1412.99 103.041 1412.49 104.141 1412.09C107.341 1410.69 110.541 1409.29 113.641 1407.79C113.541 1408.39 113.441 1408.89 113.241 1409.49C113.141 1410.09 112.941 1410.69 112.741 1411.19C112.741 1411.39 112.641 1411.49 112.641 1411.59C112.641 1411.59 112.641 1411.69 112.541 1411.79C112.141 1412.99 111.741 1414.19 111.341 1415.39C110.441 1417.89 109.441 1420.49 108.341 1422.99C104.241 1432.79 99.4411 1442.79 98.2411 1453.29C97.5411 1459.19 102.841 1462.59 108.441 1460.89C113.141 1459.49 117.741 1457.79 122.241 1455.89C123.741 1455.29 125.241 1454.59 126.741 1453.89C130.641 1451.39 135.141 1450.29 139.641 1449.19C140.441 1448.99 141.141 1448.79 141.941 1448.69C147.041 1447.59 153.941 1442.39 157.941 1448.79C161.141 1454.09 161.141 1460.09 161.241 1466.19C161.341 1466.99 161.441 1467.79 161.441 1468.49C161.941 1473.09 162.441 1477.79 163.341 1482.29C164.141 1486.19 167.341 1489.09 171.641 1488.39C175.841 1487.59 179.441 1483.59 178.641 1479.79Z" fill="white"/>
<path d="M163.241 1653.89C148.041 1670.79 132.841 1687.69 117.641 1704.59C123.441 1705.29 129.241 1705.89 135.041 1706.59C127.841 1693.49 120.641 1680.39 113.441 1667.29C109.841 1660.69 101.641 1658.99 96.0411 1665.29C80.9411 1682.19 65.8411 1698.99 50.7411 1715.89C41.9411 1725.69 57.7411 1737.29 66.5411 1727.59C81.6411 1710.69 96.741 1693.89 111.841 1676.99C106.041 1676.29 100.241 1675.69 94.4411 1674.99C101.641 1688.09 108.841 1701.19 116.041 1714.29C119.641 1720.89 127.841 1722.59 133.441 1716.29C148.641 1699.39 163.841 1682.49 179.041 1665.59C187.741 1655.79 172.041 1644.19 163.241 1653.89Z" fill="#EAEAEA"/>
<path d="M145.341 1559.19C119.441 1559.99 93.4413 1560.89 67.5413 1561.69C70.9413 1566.19 74.3413 1570.59 77.7413 1575.09C84.1413 1558.59 90.5413 1541.99 96.8413 1525.49C99.7413 1517.99 94.3413 1511.89 86.6413 1512.09C60.8413 1512.99 34.9413 1513.89 9.14127 1514.69C3.64127 1514.89 -0.45871 1520.99 0.0412899 1525.79C0.64129 1531.49 5.54129 1534.39 11.0413 1534.19C36.8413 1533.29 62.7413 1532.39 88.5413 1531.59C85.1413 1527.09 81.7413 1522.69 78.3413 1518.19C71.9413 1534.69 65.5413 1551.29 59.2413 1567.79C56.3413 1575.29 61.7413 1581.39 69.4413 1581.19C95.3413 1580.39 121.341 1579.49 147.241 1578.69C152.741 1578.49 156.841 1572.39 156.341 1567.59C155.841 1561.79 150.841 1558.99 145.341 1559.19Z" fill="#EAEAEA"/>
<path d="M672.841 1919.79C668.341 1951.49 726.041 1956.39 748.241 1960.29C827.041 1974.19 907.141 1962.99 985.841 1953.89C994.741 1952.29 1003.64 1950.79 1012.64 1949.39C1094.84 1937.39 1175.24 1958.49 1257.14 1960.89C1325.24 1962.89 1393.74 1961.79 1461.64 1953.49C1472.44 1952.19 1491.14 1950.79 1498.04 1938.19C1504.94 1925.49 1497.74 1915.69 1487.74 1911.39C1439.34 1890.59 1386.64 1890.49 1336.04 1888.29C1233.04 1883.79 1131.44 1913.29 1028.74 1905.99C1005.94 1904.39 983.341 1899.89 960.741 1895.79C953.241 1894.39 945.641 1893.09 938.141 1891.79C895.041 1884.89 850.941 1883.69 807.341 1886.09C785.041 1887.29 762.841 1889.19 740.741 1891.99C722.541 1894.29 698.041 1894.69 682.541 1904.89C676.741 1908.79 673.641 1914.19 672.841 1919.79Z" fill="#EAEAEA"/>
<path d="M901.141 1535.29C901.541 1541.39 902.041 1547.59 902.541 1553.69C902.741 1556.59 903.041 1559.49 903.341 1562.39C903.441 1563.69 903.541 1564.99 903.741 1566.29C903.541 1563.89 904.041 1569.59 904.141 1570.29C905.341 1582.49 906.641 1594.69 908.141 1606.79C911.041 1631.39 914.541 1655.89 918.241 1680.29C925.741 1728.79 934.541 1776.79 943.541 1824.79C948.641 1851.99 953.841 1879.09 958.841 1906.29C960.541 1915.19 956.741 1925.89 950.241 1928.09C943.741 1930.19 936.841 1925.29 935.041 1915.69C917.041 1818.69 897.241 1721.99 885.041 1622.99C883.241 1608.49 881.641 1593.99 880.241 1579.39C878.841 1564.79 877.541 1550.19 876.441 1535.59C875.741 1526.39 882.541 1517.49 888.741 1517.89C896.041 1517.99 900.341 1525.39 901.141 1535.29Z" fill="#040404"/>
<path d="M947.641 1918.49C944.841 1920.09 941.941 1921.59 938.941 1922.89C935.941 1924.19 932.841 1925.39 929.641 1926.49C918.141 1928.99 903.041 1932.39 889.241 1931.89C885.841 1931.79 882.441 1931.39 879.241 1930.69C876.941 1930.19 874.341 1929.59 871.741 1928.69C869.241 1927.79 866.641 1926.69 864.441 1925.39C857.141 1921.59 857.141 1913.19 860.141 1906.49C864.341 1899.29 869.141 1893.19 876.441 1889.69C878.341 1888.69 880.341 1887.89 882.341 1887.19C900.341 1881.19 921.441 1887.19 935.341 1901.89C936.541 1903.09 937.741 1904.39 938.941 1905.69C940.341 1909.09 943.941 1910.89 945.341 1914.29C946.241 1915.69 946.941 1917.09 947.641 1918.49Z" fill="#040404"/>
<path d="M952.941 1927.59C945.141 1932.09 936.641 1935.79 927.841 1937.69C919.041 1939.59 910.141 1941.29 901.141 1942.09C891.841 1942.99 882.441 1942.49 873.341 1940.19C864.841 1937.99 854.841 1933.99 850.541 1925.79C841.941 1909.69 855.041 1890.29 868.841 1881.89C882.941 1873.29 901.341 1872.29 916.741 1877.69C925.741 1880.89 933.941 1885.79 940.941 1892.39C942.341 1893.79 943.741 1895.19 945.141 1896.59C946.241 1897.69 947.341 1898.89 948.241 1900.29C948.441 1900.79 948.741 1901.29 949.041 1901.79C948.241 1900.79 948.141 1900.69 948.941 1901.59C952.341 1904.89 954.841 1908.79 956.841 1913.09C959.041 1918.19 958.241 1924.79 952.941 1927.59C948.241 1930.09 941.041 1929.09 938.541 1923.79C937.841 1922.39 937.141 1920.99 936.341 1919.59C936.041 1919.09 934.641 1917.09 936.141 1918.99C935.741 1918.59 935.441 1918.19 935.041 1917.79C933.641 1916.29 932.341 1914.89 931.141 1913.19C931.141 1913.19 929.841 1910.89 930.541 1912.09C931.041 1912.69 930.941 1912.49 930.141 1911.59C929.641 1911.09 929.141 1910.59 928.741 1910.09C927.641 1908.89 926.541 1907.79 925.341 1906.69C924.841 1906.29 924.441 1905.89 923.941 1905.49C924.041 1905.59 921.641 1903.59 922.841 1904.59C924.041 1905.49 921.541 1903.69 921.641 1903.79C921.041 1903.39 920.341 1902.89 919.741 1902.49C918.341 1901.59 916.841 1900.79 915.341 1899.99C914.541 1899.59 913.741 1899.19 912.841 1898.79C913.241 1898.99 914.741 1899.49 912.841 1898.79C911.441 1898.29 910.041 1897.79 908.541 1897.29C907.141 1896.89 905.641 1896.49 904.141 1896.19C903.541 1896.09 902.941 1895.99 902.341 1895.89C901.141 1895.69 901.141 1895.69 902.441 1895.89C901.841 1895.79 901.241 1895.79 900.641 1895.69C897.941 1895.49 895.341 1895.49 892.641 1895.69C892.141 1895.69 889.341 1896.29 891.941 1895.79C891.341 1895.89 890.741 1895.99 890.241 1896.09C888.541 1896.49 886.741 1896.89 885.141 1897.49C885.441 1897.39 882.141 1898.59 883.441 1898.09C884.741 1897.59 881.541 1898.99 881.841 1898.89C880.441 1899.59 879.241 1900.39 877.941 1901.19C876.341 1902.29 877.641 1901.39 877.941 1901.19C877.241 1901.79 876.641 1902.39 875.941 1902.99C875.541 1903.39 875.141 1903.79 874.741 1904.29C874.541 1904.49 872.541 1906.89 873.241 1905.99C874.241 1904.79 872.341 1907.19 872.441 1907.19C872.041 1907.69 871.741 1908.19 871.441 1908.79C870.941 1909.59 870.441 1910.39 869.941 1911.19C868.741 1912.89 869.741 1911.49 869.941 1910.99C869.741 1911.69 868.641 1913.99 868.941 1914.79C869.041 1914.39 869.041 1913.89 869.141 1913.49C869.141 1913.99 869.041 1914.49 869.041 1914.99C869.041 1915.29 869.041 1915.49 869.041 1915.79C869.141 1916.99 869.141 1916.79 868.941 1915.19C869.041 1915.09 869.141 1916.59 869.341 1916.59C869.141 1916.19 869.041 1915.79 868.841 1915.39C869.041 1915.79 869.341 1916.29 869.541 1916.69C868.641 1914.89 869.041 1915.69 869.341 1916.29C869.041 1916.09 868.741 1915.89 868.441 1915.69C868.941 1915.99 869.341 1916.29 869.841 1916.59C870.441 1916.89 870.941 1917.29 871.541 1917.59C871.641 1917.69 874.641 1918.99 872.641 1918.19C874.341 1918.89 876.041 1919.39 877.841 1919.89C879.541 1920.39 881.341 1920.79 883.141 1921.09C883.141 1921.09 886.641 1921.59 884.741 1921.39C885.541 1921.49 886.241 1921.49 887.041 1921.59C891.041 1921.89 895.041 1921.79 899.041 1921.49C901.041 1921.39 903.041 1921.09 905.041 1920.89C907.041 1920.59 902.541 1921.29 906.041 1920.79C907.141 1920.59 908.141 1920.49 909.241 1920.29C913.341 1919.59 917.341 1918.79 921.441 1917.89C925.141 1917.09 928.641 1916.19 932.241 1914.79C935.541 1913.49 931.441 1915.19 933.241 1914.39C934.441 1913.89 935.541 1913.39 936.741 1912.79C938.641 1911.79 940.541 1910.79 942.441 1909.69C947.241 1906.99 954.241 1908.39 956.841 1913.49C959.341 1918.19 958.041 1924.69 952.941 1927.59Z" fill="#040404"/>
<path d="M1238.74 1535.29C1238.34 1541.39 1237.84 1547.59 1237.34 1553.69C1237.14 1556.59 1236.84 1559.49 1236.54 1562.39C1236.44 1563.69 1236.34 1564.99 1236.14 1566.29C1236.34 1563.89 1235.84 1569.59 1235.74 1570.29C1234.54 1582.49 1233.24 1594.69 1231.74 1606.79C1228.84 1631.39 1225.34 1655.89 1221.64 1680.29C1214.14 1728.79 1205.34 1776.79 1196.34 1824.79C1191.24 1851.99 1186.04 1879.09 1181.04 1906.29C1179.34 1915.19 1183.14 1925.89 1189.64 1928.09C1196.14 1930.19 1203.04 1925.29 1204.84 1915.69C1222.84 1818.69 1242.64 1721.99 1254.84 1622.99C1256.64 1608.49 1258.24 1593.99 1259.64 1579.39C1261.04 1564.79 1262.34 1550.19 1263.44 1535.59C1264.14 1526.39 1257.34 1517.49 1251.14 1517.89C1243.94 1517.99 1239.54 1525.39 1238.74 1535.29Z" fill="#040404"/>
<path d="M1192.24 1918.49C1195.04 1920.09 1197.94 1921.59 1200.94 1922.89C1203.94 1924.19 1207.04 1925.39 1210.24 1926.49C1221.74 1928.99 1236.84 1932.39 1250.64 1931.89C1254.04 1931.79 1257.44 1931.39 1260.64 1930.69C1262.94 1930.19 1265.54 1929.59 1268.14 1928.69C1270.64 1927.79 1273.24 1926.69 1275.44 1925.39C1282.74 1921.59 1282.74 1913.19 1279.74 1906.49C1275.54 1899.29 1270.74 1893.19 1263.44 1889.69C1261.54 1888.69 1259.54 1887.89 1257.54 1887.19C1239.54 1881.19 1218.44 1887.19 1204.54 1901.89C1203.34 1903.09 1202.14 1904.39 1200.94 1905.69C1199.54 1909.09 1195.94 1910.89 1194.54 1914.29C1193.64 1915.69 1192.94 1917.09 1192.24 1918.49Z" fill="#040404"/>
<path d="M1186.94 1927.59C1194.74 1932.09 1203.24 1935.79 1212.04 1937.69C1220.84 1939.59 1229.74 1941.29 1238.74 1942.09C1248.04 1942.99 1257.44 1942.49 1266.54 1940.19C1275.04 1937.99 1285.04 1933.99 1289.34 1925.79C1297.94 1909.69 1284.84 1890.29 1271.04 1881.89C1256.94 1873.29 1238.54 1872.29 1223.14 1877.69C1214.14 1880.89 1205.94 1885.79 1198.94 1892.39C1197.54 1893.79 1196.14 1895.19 1194.74 1896.59C1193.64 1897.69 1192.54 1898.89 1191.64 1900.29C1191.44 1900.79 1191.14 1901.29 1190.84 1901.79C1191.64 1900.79 1191.74 1900.69 1190.94 1901.59C1187.54 1904.89 1185.04 1908.79 1183.04 1913.09C1180.84 1918.19 1181.64 1924.79 1186.94 1927.59C1191.64 1930.09 1198.84 1929.09 1201.34 1923.79C1202.04 1922.39 1202.74 1920.99 1203.54 1919.59C1203.84 1919.09 1205.24 1917.09 1203.74 1918.99C1204.14 1918.59 1204.44 1918.19 1204.84 1917.79C1206.24 1916.29 1207.54 1914.89 1208.74 1913.19C1208.74 1913.19 1210.04 1910.89 1209.34 1912.09C1208.84 1912.69 1208.94 1912.49 1209.74 1911.59C1210.24 1911.09 1210.74 1910.59 1211.14 1910.09C1212.24 1908.89 1213.34 1907.79 1214.54 1906.69C1215.04 1906.29 1215.44 1905.89 1215.94 1905.49C1215.84 1905.59 1218.24 1903.59 1217.04 1904.59C1215.84 1905.49 1218.34 1903.69 1218.24 1903.79C1218.84 1903.39 1219.54 1902.89 1220.14 1902.49C1221.54 1901.59 1223.04 1900.79 1224.54 1899.99C1225.34 1899.59 1226.14 1899.19 1227.04 1898.79C1226.64 1898.99 1225.14 1899.49 1227.04 1898.79C1228.44 1898.29 1229.84 1897.79 1231.34 1897.29C1232.74 1896.89 1234.24 1896.49 1235.74 1896.19C1236.34 1896.09 1236.94 1895.99 1237.54 1895.89C1238.74 1895.69 1238.74 1895.69 1237.44 1895.89C1238.04 1895.79 1238.64 1895.79 1239.24 1895.69C1241.94 1895.49 1244.54 1895.49 1247.24 1895.69C1247.74 1895.69 1250.54 1896.29 1247.94 1895.79C1248.54 1895.89 1249.14 1895.99 1249.64 1896.09C1251.34 1896.49 1253.14 1896.89 1254.74 1897.49C1254.44 1897.39 1257.74 1898.59 1256.44 1898.09C1255.14 1897.59 1258.34 1898.99 1258.04 1898.89C1259.44 1899.59 1260.64 1900.39 1261.94 1901.19C1263.54 1902.29 1262.24 1901.39 1261.94 1901.19C1262.64 1901.79 1263.24 1902.39 1263.94 1902.99C1264.34 1903.39 1264.74 1903.79 1265.14 1904.29C1265.34 1904.49 1267.34 1906.89 1266.64 1905.99C1265.64 1904.79 1267.54 1907.19 1267.44 1907.19C1267.84 1907.69 1268.14 1908.19 1268.44 1908.79C1268.94 1909.59 1269.44 1910.39 1269.94 1911.19C1271.14 1912.89 1270.14 1911.49 1269.94 1910.99C1270.14 1911.69 1271.24 1913.99 1270.94 1914.79C1270.84 1914.39 1270.84 1913.89 1270.74 1913.49C1270.74 1913.99 1270.84 1914.49 1270.84 1914.99C1270.84 1915.29 1270.84 1915.49 1270.84 1915.79C1270.74 1916.99 1270.74 1916.79 1270.94 1915.19C1270.84 1915.09 1270.74 1916.59 1270.54 1916.59C1270.74 1916.19 1270.84 1915.79 1271.04 1915.39C1270.84 1915.79 1270.54 1916.29 1270.34 1916.69C1271.24 1914.89 1270.84 1915.69 1270.54 1916.29C1270.84 1916.09 1271.14 1915.89 1271.44 1915.69C1270.94 1915.99 1270.54 1916.29 1270.04 1916.59C1269.44 1916.89 1268.94 1917.29 1268.34 1917.59C1268.24 1917.69 1265.24 1918.99 1267.24 1918.19C1265.54 1918.89 1263.84 1919.39 1262.04 1919.89C1260.34 1920.39 1258.54 1920.79 1256.74 1921.09C1256.74 1921.09 1253.24 1921.59 1255.14 1921.39C1254.34 1921.49 1253.64 1921.49 1252.84 1921.59C1248.84 1921.89 1244.84 1921.79 1240.84 1921.49C1238.84 1921.39 1236.84 1921.09 1234.84 1920.89C1232.84 1920.59 1237.34 1921.29 1233.84 1920.79C1232.74 1920.59 1231.74 1920.49 1230.64 1920.29C1226.54 1919.59 1222.54 1918.79 1218.44 1917.89C1214.74 1917.09 1211.24 1916.19 1207.64 1914.79C1204.34 1913.49 1208.44 1915.19 1206.64 1914.39C1205.44 1913.89 1204.34 1913.39 1203.14 1912.79C1201.24 1911.79 1199.34 1910.79 1197.44 1909.69C1192.64 1906.99 1185.64 1908.39 1183.04 1913.49C1180.54 1918.19 1181.84 1924.69 1186.94 1927.59Z" fill="#040404"/>
<path d="M849.441 599.19C826.341 505.39 823.441 404.49 843.741 309.89C862.941 220.59 905.541 130.59 985.041 80.19C1057.14 34.49 1161.94 19.1901 1235.54 68.4901C1302.04 112.99 1330.94 199.09 1347.24 274.59C1365.74 360.19 1367.64 446.79 1372.94 533.79C1374.14 552.79 1380.94 570.39 1385.64 588.69C1390.74 608.49 1421.34 600.09 1416.24 580.29C1411.84 563.19 1405.14 546.79 1404.54 528.99C1404.14 518.59 1403.74 508.19 1403.34 497.79C1402.34 475.49 1401.24 453.09 1399.64 430.89C1396.24 383.29 1391.14 335.69 1382.44 288.79C1366.84 205.09 1338.34 111.49 1270.14 55.19C1194.14 -7.50998 1085.14 -3.70993 999.241 36.4901C907.241 79.4901 850.141 169.49 822.541 264.29C793.541 363.79 792.141 471.99 811.341 573.39C813.541 584.89 816.041 596.39 818.841 607.79C823.741 627.49 854.341 619.09 849.441 599.19Z" fill="#EAEAEA"/>
<path d="M1806.44 1772.99L2111.04 1663.09L1866.74 411.39L1760.24 428.99L1640.24 399.79L1540.34 781.09L1806.44 1772.99Z" fill="#7D3EB5"/>
<path d="M273.141 464.19C273.141 464.19 266.741 702.29 256.141 999.29C254.641 1041.69 253.041 1084.79 251.541 1127.89C250.141 1166.29 248.841 1204.59 247.441 1242.89C240.441 1400.79 237.141 1559.39 230.741 1717.09C229.441 1748.59 229.641 1748.69 228.041 1780.09C704.841 1802.59 1756.64 1777.09 1806.34 1773.39C1786.34 1587.69 1757.74 1402.29 1738.94 1214.49C1733.24 1166.99 1727.34 1118.59 1721.54 1070.29C1680.64 732.39 1640.44 399.79 1640.44 399.79L273.141 464.19Z" fill="#9755D1"/>
<path d="M1806.44 1772.99L1949.94 1572.59L1760.24 428.99L1640.24 399.79L1806.44 1772.99Z" fill="#731DBE"/>
<g opacity="0.5">
<path opacity="0.5" d="M1806.44 1772.99L1949.94 1572.59L2111.04 1663.09L1806.44 1772.99Z" fill="#53148A"/>
</g>
<path d="M657.141 633.59C686.909 633.59 711.041 609.458 711.041 579.69C711.041 549.922 686.909 525.79 657.141 525.79C627.373 525.79 603.241 549.922 603.241 579.69C603.241 609.458 627.373 633.59 657.141 633.59Z" fill="white"/>
<path d="M657.142 615.69C677.024 615.69 693.142 599.572 693.142 579.69C693.142 559.808 677.024 543.69 657.142 543.69C637.259 543.69 621.142 559.808 621.142 579.69C621.142 599.572 637.259 615.69 657.142 615.69Z" fill="#5E0000"/>
<path d="M1277.04 605.09C1306.81 605.09 1330.94 580.958 1330.94 551.19C1330.94 521.422 1306.81 497.29 1277.04 497.29C1247.27 497.29 1223.14 521.422 1223.14 551.19C1223.14 580.958 1247.27 605.09 1277.04 605.09Z" fill="white"/>
<path d="M1277.04 587.19C1296.92 587.19 1313.04 571.072 1313.04 551.19C1313.04 531.308 1296.92 515.19 1277.04 515.19C1257.16 515.19 1241.04 531.308 1241.04 551.19C1241.04 571.072 1257.16 587.19 1277.04 587.19Z" fill="#5E0000"/>
<path d="M673.441 561.59C645.041 473.39 643.041 373.79 667.741 284.39C688.441 209.39 730.941 138.99 793.141 91.19C859.441 40.29 947.141 17.6901 1028.64 40.9901C1071.24 53.1901 1109.94 77.4901 1139.04 110.99C1153.44 127.59 1165.74 147.09 1175.14 166.99C1184.94 187.89 1189.44 209.19 1195.14 231.39C1208.24 282.79 1209.24 336.89 1214.94 389.49C1220.74 443.19 1230.64 495.99 1254.24 544.99C1263.04 563.39 1290.44 547.29 1281.64 528.99C1237.54 437.19 1247.74 331.69 1228.34 233.89C1218.74 185.69 1202.14 140.79 1171.94 101.39C1142.64 63.19 1103.14 34.69 1058.24 17.39C972.541 -15.61 873.941 0.190113 797.741 49.2901C726.341 95.2901 674.941 166.59 646.541 246.09C629.641 293.19 622.241 342.99 619.941 392.89C617.141 452.59 624.441 513.09 642.741 569.99C649.041 589.39 679.741 581.09 673.441 561.59Z" fill="#EAEAEA"/>
<path d="M1695.44 1399.49C1689.04 1418.29 1681.74 1436.39 1672.94 1453.99L1673.24 1453.19C1660.44 1477.09 1646.04 1500.49 1627.24 1519.59L1628.24 1519.09C1596.44 1552.69 1555.84 1577.09 1511.04 1589.29C1505.34 1590.99 1499.64 1592.49 1493.94 1593.79C1490.84 1594.49 1487.84 1595.19 1484.74 1595.79C1483.34 1596.09 1481.84 1596.39 1480.34 1596.69C1478.84 1596.99 1480.74 1596.59 1480.94 1596.59C1479.84 1596.79 1478.74 1596.99 1477.64 1597.19C1470.94 1598.39 1464.54 1603.39 1465.34 1610.99C1465.94 1617.29 1471.94 1624.59 1479.14 1623.29C1501.74 1619.29 1523.84 1613.29 1545.24 1605.29C1631.64 1575.49 1689.54 1495.09 1716.14 1410.59C1717.84 1403.39 1716.74 1394.39 1708.04 1392.19C1702.14 1390.99 1696.64 1394.29 1695.44 1399.49Z" fill="#040404"/>
<path d="M1464.84 1605.89C1465.24 1609.39 1465.24 1612.69 1464.94 1615.99C1464.54 1619.29 1463.84 1622.49 1462.74 1625.59C1455.64 1642.59 1441.84 1657.79 1421.84 1660.39C1418.74 1660.79 1415.64 1660.89 1412.64 1660.69C1393.14 1661.09 1376.34 1645.39 1375.74 1626.99C1375.24 1597.99 1409.44 1585.19 1435.74 1591.59C1440.14 1592.49 1444.44 1593.79 1448.44 1595.49C1452.24 1597.09 1455.84 1599.19 1459.14 1601.69C1460.84 1603.09 1462.74 1604.39 1464.84 1605.89Z" fill="#040404"/>
<path d="M1453.14 1606.49C1453.44 1608.99 1453.64 1611.59 1453.44 1614.09C1453.64 1611.89 1453.14 1615.89 1453.14 1615.89C1452.94 1617.09 1452.64 1618.29 1452.34 1619.49C1452.24 1619.79 1450.84 1623.39 1451.94 1620.89C1451.54 1621.79 1451.14 1622.59 1450.74 1623.49C1449.94 1625.19 1449.04 1626.89 1448.14 1628.49C1447.64 1629.29 1447.14 1630.09 1446.64 1630.89C1446.44 1631.29 1444.54 1633.89 1446.24 1631.49C1445.14 1632.99 1443.94 1634.49 1442.74 1635.89C1441.74 1637.09 1440.64 1638.19 1439.44 1639.29C1438.74 1639.99 1438.04 1640.59 1437.34 1641.19C1439.54 1639.29 1436.34 1641.89 1435.94 1642.19C1434.44 1643.29 1432.84 1644.29 1431.14 1645.19C1430.54 1645.49 1430.04 1645.79 1429.44 1646.09C1431.94 1644.89 1429.04 1646.19 1428.64 1646.39C1426.84 1647.09 1424.94 1647.69 1423.04 1648.19C1422.64 1648.29 1419.44 1648.79 1422.04 1648.39C1420.54 1648.59 1419.04 1648.79 1417.54 1648.89C1415.64 1648.99 1413.74 1648.99 1411.84 1648.89C1410.84 1648.89 1409.94 1648.89 1408.94 1648.79C1411.94 1648.99 1408.84 1648.69 1408.24 1648.59C1406.34 1648.29 1404.54 1647.79 1402.74 1647.19C1405.64 1648.09 1402.74 1647.19 1402.24 1646.89C1401.44 1646.49 1400.54 1646.09 1399.74 1645.69C1398.94 1645.29 1398.14 1644.79 1397.34 1644.29C1394.74 1642.79 1399.04 1645.89 1396.84 1643.89C1395.44 1642.69 1394.14 1641.49 1392.84 1640.19C1390.74 1638.19 1394.14 1642.09 1392.44 1639.69C1392.04 1639.09 1391.54 1638.49 1391.14 1637.89C1390.74 1637.29 1390.34 1636.59 1389.94 1635.99C1389.64 1635.49 1389.34 1634.99 1389.04 1634.39C1389.64 1635.79 1389.74 1635.79 1389.14 1634.69C1388.54 1632.99 1387.94 1631.29 1387.44 1629.59C1386.64 1626.79 1387.54 1631.89 1387.34 1628.99C1387.34 1628.19 1387.14 1627.49 1387.14 1626.69C1387.14 1625.89 1387.14 1625.19 1387.14 1624.39C1387.14 1621.39 1386.64 1626.89 1387.14 1623.99C1387.34 1622.69 1387.44 1619.09 1388.54 1618.29C1388.34 1618.79 1388.24 1619.19 1388.04 1619.69C1388.24 1619.19 1388.44 1618.69 1388.64 1618.19C1388.94 1617.49 1389.34 1616.69 1389.74 1615.99C1390.04 1615.49 1390.34 1615.09 1390.54 1614.59C1391.84 1612.19 1388.84 1616.49 1390.64 1614.49C1391.74 1613.29 1392.74 1611.99 1393.84 1610.89C1394.44 1610.39 1395.84 1608.39 1393.94 1610.69C1394.54 1609.89 1395.74 1609.29 1396.54 1608.69C1397.64 1607.89 1398.84 1607.19 1400.04 1606.49C1400.74 1606.09 1401.54 1605.69 1402.24 1605.29C1399.54 1606.69 1402.14 1605.39 1402.64 1605.19C1405.84 1603.89 1409.24 1602.99 1412.64 1602.19C1409.64 1602.89 1412.54 1602.19 1413.14 1602.19C1414.34 1601.99 1415.44 1601.89 1416.64 1601.79C1418.74 1601.59 1420.74 1601.49 1422.84 1601.59C1423.44 1601.59 1424.04 1601.59 1424.64 1601.59C1425.24 1601.59 1425.84 1601.69 1426.44 1601.69C1424.74 1601.59 1424.64 1601.59 1425.94 1601.69C1427.94 1601.99 1429.94 1602.29 1431.94 1602.69C1434.64 1603.29 1437.24 1603.89 1439.84 1604.69C1440.14 1604.79 1442.04 1605.49 1440.24 1604.79C1441.74 1605.39 1443.24 1605.99 1444.64 1606.79C1450.44 1609.69 1453.14 1612.09 1458.84 1615.99C1463.94 1619.49 1472.24 1616.29 1474.64 1611.09C1477.64 1604.79 1475.14 1598.99 1469.74 1595.29C1469.24 1594.89 1468.74 1594.59 1468.14 1594.19C1466.44 1592.99 1469.34 1594.99 1467.74 1593.89C1466.54 1593.09 1465.34 1592.19 1464.14 1591.39C1461.34 1589.39 1458.54 1587.59 1455.44 1586.09C1449.74 1583.29 1443.74 1581.39 1437.54 1579.99C1428.94 1578.09 1419.94 1577.49 1411.24 1578.79C1393.44 1581.49 1374.64 1590.59 1367.14 1607.99C1359.04 1626.89 1364.74 1649.19 1381.24 1661.69C1398.84 1675.19 1423.54 1675.39 1442.74 1665.09C1463.54 1653.99 1478.54 1628.59 1475.84 1604.99C1475.14 1598.89 1470.04 1593.29 1463.44 1593.89C1458.24 1594.79 1452.44 1599.99 1453.14 1606.49Z" fill="#040404"/>
<path d="M1434.74 1579.29C1432.94 1578.59 1431.14 1577.99 1429.44 1577.19C1428.94 1576.99 1428.44 1576.69 1427.94 1576.39C1428.24 1576.59 1428.54 1576.79 1428.74 1576.99C1428.94 1577.59 1430.74 1580.69 1430.24 1581.09C1430.14 1580.69 1430.14 1580.39 1430.14 1579.99C1430.14 1579.39 1430.14 1579.49 1430.04 1580.39C1429.94 1581.29 1429.94 1581.49 1430.04 1580.79C1430.14 1580.39 1430.14 1579.99 1430.24 1579.59C1430.54 1577.59 1430.14 1580.39 1429.94 1580.29C1430.04 1580.09 1430.14 1579.79 1430.24 1579.59C1430.74 1578.69 1430.74 1578.69 1430.14 1579.49C1429.64 1580.19 1429.54 1580.29 1429.94 1579.79C1430.14 1579.49 1430.44 1579.19 1430.64 1578.99C1430.84 1579.49 1428.24 1580.59 1427.94 1580.69C1429.84 1579.99 1425.94 1581.29 1427.34 1580.89C1428.04 1580.59 1426.04 1580.59 1427.34 1580.89C1428.14 1581.09 1429.14 1581.29 1429.94 1581.39C1430.94 1581.59 1431.14 1581.69 1430.04 1581.29C1431.74 1581.89 1433.24 1582.79 1434.84 1583.59C1435.64 1583.99 1436.04 1584.29 1435.04 1583.59C1435.74 1584.09 1436.44 1584.69 1437.14 1585.29C1438.44 1586.29 1439.54 1587.49 1440.74 1588.59C1441.24 1589.09 1441.74 1589.69 1442.24 1590.19C1440.84 1588.69 1442.44 1590.49 1442.74 1590.89C1443.74 1592.19 1444.64 1593.49 1445.54 1594.89C1449.74 1600.99 1453.64 1607.19 1456.84 1613.89C1463.44 1609.69 1470.04 1605.49 1476.54 1601.19C1472.24 1592.39 1463.64 1585.49 1454.34 1582.49C1450.04 1581.09 1445.74 1579.69 1441.34 1578.69C1439.54 1578.29 1437.74 1577.89 1435.84 1577.59C1432.24 1576.99 1429.04 1577.49 1425.44 1578.29C1419.44 1579.69 1415.84 1587.49 1417.94 1593.09C1420.34 1599.39 1426.34 1602.09 1432.74 1600.59C1435.54 1599.89 1430.84 1600.59 1430.84 1600.49C1430.84 1600.39 1432.84 1600.89 1432.94 1600.89C1434.64 1601.19 1436.24 1601.59 1437.94 1601.99C1441.34 1602.79 1444.74 1603.89 1448.04 1605.09C1446.84 1604.69 1447.74 1604.99 1448.34 1605.29C1449.04 1605.69 1449.64 1605.99 1450.34 1606.39C1451.14 1606.79 1451.64 1607.19 1450.64 1606.49C1451.24 1606.89 1451.74 1607.29 1452.24 1607.79C1452.74 1608.29 1453.24 1608.69 1453.74 1609.19C1455.84 1611.19 1453.44 1608.29 1454.24 1609.69C1455.04 1611.09 1456.04 1612.39 1456.74 1613.89C1459.44 1619.39 1468.14 1620.79 1472.94 1617.39C1478.64 1613.39 1479.34 1607.09 1476.44 1601.19C1472.24 1592.49 1467.04 1583.99 1460.94 1576.49C1453.84 1567.89 1444.94 1560.59 1433.74 1558.19C1428.04 1556.99 1422.04 1556.89 1416.94 1559.99C1412.14 1562.89 1409.34 1567.69 1407.64 1572.89C1405.94 1577.99 1405.94 1584.59 1408.84 1589.19C1412.34 1594.89 1417.74 1597.49 1423.64 1599.79C1429.34 1601.99 1436.64 1600.99 1439.44 1594.89C1442.14 1589.89 1440.84 1581.69 1434.74 1579.29Z" fill="#040404"/>
<path d="M325.142 1399.49C331.542 1418.29 338.842 1436.39 347.642 1453.99L347.342 1453.19C360.142 1477.09 374.542 1500.49 393.342 1519.59L392.342 1519.09C424.142 1552.69 464.742 1577.09 509.542 1589.29C515.242 1590.99 520.942 1592.49 526.642 1593.79C529.742 1594.49 532.742 1595.19 535.842 1595.79C537.242 1596.09 538.742 1596.39 540.242 1596.69C541.742 1596.99 539.842 1596.59 539.642 1596.59C540.742 1596.79 541.842 1596.99 542.942 1597.19C549.642 1598.39 556.042 1603.39 555.242 1610.99C554.642 1617.29 548.642 1624.59 541.442 1623.29C518.842 1619.29 496.742 1613.29 475.342 1605.29C388.942 1575.49 331.042 1495.09 304.442 1410.59C302.742 1403.39 303.842 1394.39 312.542 1392.19C318.442 1390.99 323.842 1394.29 325.142 1399.49Z" fill="#040404"/>
<path d="M555.642 1605.89C555.242 1609.39 555.242 1612.69 555.542 1615.99C555.942 1619.29 556.642 1622.49 557.742 1625.59C564.842 1642.59 578.642 1657.79 598.642 1660.39C601.742 1660.79 604.842 1660.89 607.842 1660.69C627.342 1661.09 644.142 1645.39 644.742 1626.99C645.242 1597.99 611.042 1585.19 584.742 1591.59C580.342 1592.49 576.042 1593.79 572.042 1595.49C568.242 1597.09 564.642 1599.19 561.342 1601.69C559.742 1603.09 557.842 1604.39 555.642 1605.89Z" fill="#040404"/>
<path d="M567.342 1606.49C567.042 1608.99 566.842 1611.59 567.042 1614.09C566.842 1611.89 567.342 1615.89 567.342 1615.89C567.542 1617.09 567.842 1618.29 568.142 1619.49C568.242 1619.79 569.642 1623.39 568.542 1620.89C568.942 1621.79 569.342 1622.59 569.742 1623.49C570.542 1625.19 571.442 1626.89 572.342 1628.49C572.842 1629.29 573.342 1630.09 573.842 1630.89C574.042 1631.29 575.942 1633.89 574.242 1631.49C575.342 1632.99 576.542 1634.49 577.742 1635.89C578.742 1637.09 579.842 1638.19 581.042 1639.29C581.742 1639.99 582.442 1640.59 583.142 1641.19C580.942 1639.29 584.142 1641.89 584.542 1642.19C586.042 1643.29 587.642 1644.29 589.342 1645.19C589.942 1645.49 590.442 1645.79 591.042 1646.09C588.542 1644.89 591.442 1646.19 591.842 1646.39C593.642 1647.09 595.542 1647.69 597.442 1648.19C597.842 1648.29 601.042 1648.79 598.442 1648.39C599.942 1648.59 601.442 1648.79 602.942 1648.89C604.842 1648.99 606.742 1648.99 608.642 1648.89C609.642 1648.89 610.542 1648.89 611.542 1648.79C608.542 1648.99 611.642 1648.69 612.242 1648.59C614.142 1648.29 615.942 1647.79 617.742 1647.19C614.842 1648.09 617.742 1647.19 618.242 1646.89C619.042 1646.49 619.942 1646.09 620.742 1645.69C621.542 1645.29 622.342 1644.79 623.142 1644.29C625.742 1642.79 621.442 1645.89 623.642 1643.89C625.042 1642.69 626.342 1641.49 627.642 1640.19C629.742 1638.19 626.342 1642.09 628.042 1639.69C628.442 1639.09 628.942 1638.49 629.342 1637.89C629.742 1637.29 630.142 1636.59 630.542 1635.99C630.842 1635.49 631.142 1634.99 631.442 1634.39C630.842 1635.79 630.742 1635.79 631.342 1634.69C631.942 1632.99 632.542 1631.29 633.042 1629.59C633.842 1626.79 632.942 1631.89 633.142 1628.99C633.142 1628.19 633.342 1627.49 633.342 1626.69C633.342 1625.89 633.342 1625.19 633.342 1624.39C633.342 1621.39 633.842 1626.89 633.342 1623.99C633.142 1622.69 633.042 1619.09 631.942 1618.29C632.142 1618.79 632.242 1619.19 632.442 1619.69C632.242 1619.19 632.042 1618.69 631.842 1618.19C631.542 1617.49 631.142 1616.69 630.742 1615.99C630.442 1615.49 630.142 1615.09 629.942 1614.59C628.642 1612.19 631.642 1616.49 629.842 1614.49C628.742 1613.29 627.742 1611.99 626.642 1610.89C626.042 1610.39 624.642 1608.39 626.542 1610.69C625.942 1609.89 624.742 1609.29 623.942 1608.69C622.842 1607.89 621.642 1607.19 620.442 1606.49C619.742 1606.09 618.942 1605.69 618.242 1605.29C620.942 1606.69 618.342 1605.39 617.842 1605.19C614.642 1603.89 611.242 1602.99 607.842 1602.19C610.842 1602.89 607.942 1602.19 607.342 1602.19C606.142 1601.99 605.042 1601.89 603.842 1601.79C601.742 1601.59 599.742 1601.49 597.642 1601.59C597.042 1601.59 596.442 1601.59 595.842 1601.59C595.242 1601.59 594.642 1601.69 594.042 1601.69C595.742 1601.59 595.842 1601.59 594.542 1601.69C592.542 1601.99 590.542 1602.29 588.542 1602.69C585.842 1603.29 583.242 1603.89 580.642 1604.69C580.342 1604.79 578.442 1605.49 580.242 1604.79C578.742 1605.39 577.242 1605.99 575.842 1606.79C570.042 1609.69 567.342 1612.09 561.642 1615.99C556.542 1619.49 548.242 1616.29 545.842 1611.09C542.842 1604.79 545.342 1598.99 550.742 1595.29C551.242 1594.89 551.742 1594.59 552.342 1594.19C554.042 1592.99 551.142 1594.99 552.742 1593.89C553.942 1593.09 555.142 1592.19 556.342 1591.39C559.142 1589.39 561.942 1587.59 565.042 1586.09C570.742 1583.29 576.742 1581.39 582.942 1579.99C591.542 1578.09 600.542 1577.49 609.242 1578.79C627.042 1581.49 645.842 1590.59 653.342 1607.99C661.442 1626.89 655.742 1649.19 639.242 1661.69C621.642 1675.19 596.942 1675.39 577.742 1665.09C556.942 1653.99 541.942 1628.59 544.642 1604.99C545.342 1598.89 550.442 1593.29 557.042 1593.89C562.342 1594.79 568.142 1599.99 567.342 1606.49Z" fill="#040404"/>
<path d="M585.742 1579.29C587.542 1578.59 589.342 1577.99 591.042 1577.19C591.542 1576.99 592.042 1576.69 592.542 1576.39C592.242 1576.59 591.942 1576.79 591.742 1576.99C591.542 1577.59 589.742 1580.69 590.242 1581.09C590.342 1580.69 590.342 1580.39 590.342 1579.99C590.342 1579.39 590.342 1579.49 590.442 1580.39C590.542 1581.29 590.542 1581.49 590.442 1580.79C590.342 1580.39 590.342 1579.99 590.242 1579.59C589.942 1577.59 590.342 1580.39 590.542 1580.29C590.442 1580.09 590.342 1579.79 590.242 1579.59C589.742 1578.69 589.742 1578.69 590.342 1579.49C590.842 1580.19 590.942 1580.29 590.542 1579.79C590.342 1579.49 590.042 1579.19 589.842 1578.99C589.642 1579.49 592.242 1580.59 592.542 1580.69C590.642 1579.99 594.542 1581.29 593.142 1580.89C592.442 1580.59 594.442 1580.59 593.142 1580.89C592.342 1581.09 591.342 1581.29 590.542 1581.39C589.542 1581.59 589.342 1581.69 590.442 1581.29C588.742 1581.89 587.242 1582.79 585.642 1583.59C584.842 1583.99 584.442 1584.29 585.442 1583.59C584.742 1584.09 584.042 1584.69 583.342 1585.29C582.042 1586.29 580.942 1587.49 579.742 1588.59C579.242 1589.09 578.742 1589.69 578.242 1590.19C579.642 1588.69 578.042 1590.49 577.742 1590.89C576.742 1592.19 575.842 1593.49 574.942 1594.89C570.742 1600.99 566.842 1607.19 563.642 1613.89C557.042 1609.69 550.442 1605.49 543.942 1601.19C548.242 1592.39 556.842 1585.49 566.142 1582.49C570.442 1581.09 574.742 1579.69 579.142 1578.69C580.942 1578.29 582.742 1577.89 584.642 1577.59C588.242 1576.99 591.442 1577.49 595.042 1578.29C601.042 1579.69 604.642 1587.49 602.542 1593.09C600.142 1599.39 594.142 1602.09 587.742 1600.59C584.942 1599.89 589.642 1600.59 589.642 1600.49C589.642 1600.39 587.642 1600.89 587.542 1600.89C585.842 1601.19 584.242 1601.59 582.542 1601.99C579.142 1602.79 575.742 1603.89 572.442 1605.09C573.642 1604.69 572.742 1604.99 572.142 1605.29C571.442 1605.69 570.842 1605.99 570.142 1606.39C569.342 1606.79 568.842 1607.19 569.842 1606.49C569.242 1606.89 568.742 1607.29 568.242 1607.79C567.742 1608.29 567.242 1608.69 566.742 1609.19C564.642 1611.19 567.042 1608.29 566.242 1609.69C565.442 1611.09 564.442 1612.39 563.742 1613.89C561.042 1619.39 552.342 1620.79 547.542 1617.39C541.842 1613.39 541.142 1607.09 544.042 1601.19C548.242 1592.49 553.442 1583.99 559.542 1576.49C566.642 1567.89 575.542 1560.59 586.742 1558.19C592.442 1556.99 598.442 1556.89 603.542 1559.99C608.342 1562.89 611.142 1567.69 612.842 1572.89C614.542 1577.99 614.542 1584.59 611.642 1589.19C608.142 1594.89 602.742 1597.49 596.842 1599.79C591.142 1601.99 583.842 1600.99 581.042 1594.89C578.442 1589.89 579.642 1581.69 585.742 1579.29Z" fill="#040404"/>
<path d="M757.442 1296.89C757.242 1296.89 757.142 1296.99 757.042 1296.99C756.942 1296.99 756.742 1296.99 756.642 1296.99C733.642 1300.49 703.342 1313.89 696.642 1339.99C689.742 1366.69 715.942 1385.69 737.342 1391.49C759.742 1397.49 784.242 1394.09 804.942 1383.59C823.942 1373.99 841.542 1353.79 830.742 1330.69C817.642 1302.99 784.442 1293.49 757.442 1296.89Z" fill="#BD72FF"/>
<path d="M1291.04 1296.99C1290.94 1296.99 1290.74 1296.99 1290.64 1296.99C1290.54 1296.99 1290.34 1296.89 1290.24 1296.89C1264.84 1293.69 1237.64 1301.19 1221.54 1323.29C1215.04 1332.19 1211.54 1343.49 1214.94 1354.59C1218.24 1365.29 1226.34 1373.39 1235.14 1379.29C1254.34 1391.99 1278.94 1396.89 1301.34 1393.49C1322.54 1390.29 1351.44 1375.79 1352.24 1349.69C1353.04 1318.09 1315.74 1300.79 1291.04 1296.99Z" fill="#BD72FF"/>
<path d="M1104.74 1335.89C1095.34 1305.39 1069.84 1280.99 1034.94 1278.89C996.042 1276.49 968.442 1302.59 955.842 1334.99C948.742 1353.39 979.542 1362.29 986.642 1343.99C994.242 1324.39 1009.84 1307.09 1033.84 1309.19C1054.04 1310.99 1067.84 1325.29 1073.34 1342.99C1079.14 1361.69 1110.54 1354.69 1104.74 1335.89Z" fill="#040404"/>
<path d="M1276.54 1199.59C1276.64 1199.49 1276.74 1199.49 1276.74 1199.39C1294.14 1181.89 1316.54 1168.39 1340.84 1157.49C1350.34 1153.29 1345.94 1139.79 1335.54 1141.19C1289.64 1147.19 1247.84 1175.89 1216.14 1205.49C1209.94 1210.89 1204.04 1216.49 1198.34 1222.39C1193.04 1227.89 1188.04 1233.49 1183.24 1239.39C1177.94 1245.79 1184.14 1254.89 1192.54 1253.09C1192.94 1252.99 1193.24 1252.89 1193.64 1252.89C1202.34 1251.09 1211.14 1249.99 1220.04 1249.39C1262.44 1245.59 1304.44 1253.49 1344.14 1265.29C1353.44 1268.09 1360.24 1256.89 1353.04 1250.69C1332.64 1233.09 1307.24 1220.29 1280.44 1213.99C1273.64 1212.29 1271.34 1204.19 1276.54 1199.59Z" fill="#040404"/>
<path d="M775.042 1199.59C774.942 1199.49 774.842 1199.49 774.842 1199.39C757.442 1181.89 735.042 1168.39 710.742 1157.49C701.242 1153.29 705.642 1139.79 716.042 1141.19C761.942 1147.19 803.742 1175.89 835.442 1205.49C841.642 1210.89 847.542 1216.49 853.242 1222.39C858.542 1227.89 863.542 1233.49 868.342 1239.39C873.642 1245.79 867.442 1254.89 859.042 1253.09C858.642 1252.99 858.342 1252.89 857.942 1252.89C849.242 1251.09 840.442 1249.99 831.542 1249.39C789.142 1245.59 747.142 1253.49 707.442 1265.29C698.142 1268.09 691.342 1256.89 698.542 1250.69C718.942 1233.09 744.342 1220.29 771.142 1213.99C777.942 1212.29 780.242 1204.19 775.042 1199.59Z" fill="#040404"/>
<path d="M1521.84 1238.99C1517.84 1228.29 1534.14 1215.89 1542.84 1208.59C1578.04 1179.39 1626.34 1152.19 1673.14 1153.79C1714.64 1155.19 1754.34 1177.39 1770.64 1216.69C1781.34 1242.39 1779.84 1276.99 1761.34 1298.99C1741.34 1322.79 1705.24 1326.29 1676.84 1319.69C1649.74 1313.39 1627.14 1298.89 1602.64 1286.59C1577.84 1274.19 1553.44 1260.69 1529.44 1246.69C1525.14 1244.39 1522.84 1241.69 1521.84 1238.99Z" fill="#4EC5E5"/>
<path d="M1638.34 1201.59C1644.14 1192.49 1652.54 1186.89 1664.44 1185.49C1666.74 1184.79 1669.04 1184.29 1671.54 1183.89C1703.24 1178.99 1746.94 1200.99 1737.04 1234.29C1729.54 1263.49 1686.74 1251.49 1663.34 1241.89C1659.64 1240.09 1656.14 1237.89 1652.84 1235.49C1651.14 1234.29 1649.54 1232.99 1648.04 1231.69C1646.54 1230.29 1645.14 1228.89 1643.74 1227.39C1638.34 1222.19 1635.84 1216.29 1637.24 1207.39C1637.54 1205.59 1637.94 1203.59 1638.34 1201.59Z" fill="white"/>
<path d="M1488.74 1120.09C1480.34 1116.19 1482.64 1099.89 1483.44 1090.79C1486.94 1053.99 1499.14 1010.89 1526.84 985.19C1551.34 962.39 1586.74 952.49 1618.44 965.69C1639.14 974.29 1657.94 994.99 1659.94 1018.09C1662.04 1043.09 1643.34 1065.69 1623.34 1078.09C1604.24 1089.89 1583.04 1094.49 1562.04 1101.39C1540.74 1108.39 1519.14 1114.59 1497.44 1120.29C1493.74 1121.29 1490.84 1121.09 1488.74 1120.09Z" fill="#4EC5E5"/>
<path d="M1534.34 1035.79C1532.44 1027.19 1533.94 1019.09 1539.94 1011.29C1540.84 1009.59 1541.84 1007.89 1543.04 1006.19C1558.34 984.89 1596.24 971.99 1610.04 996.89C1622.74 1018.09 1591.14 1036.09 1572.14 1044.29C1568.94 1045.39 1565.64 1046.19 1562.34 1046.79C1560.64 1047.09 1559.04 1047.29 1557.34 1047.39C1555.64 1047.49 1554.04 1047.49 1552.44 1047.39C1546.24 1047.59 1541.44 1045.59 1537.04 1039.69C1536.14 1038.49 1535.24 1037.19 1534.34 1035.79Z" fill="white"/>
<path d="M613.742 1221.39C614.942 1210.39 596.742 1202.69 586.942 1197.99C547.142 1178.99 495.442 1165.09 452.042 1177.59C413.542 1188.69 381.642 1218.89 375.642 1259.49C371.742 1285.99 381.342 1317.99 403.842 1334.19C428.142 1351.69 462.842 1346.39 487.842 1333.49C511.742 1321.19 529.442 1302.29 549.442 1284.99C569.642 1267.49 589.342 1249.09 608.542 1230.39C611.842 1227.19 613.442 1224.19 613.742 1221.39Z" fill="#4EC5E5"/>
<path d="M404.242 1265.89C400.542 1257.69 400.442 1249.29 404.942 1240.19C405.442 1238.29 406.142 1236.39 407.042 1234.49C418.042 1209.99 453.442 1189.39 472.242 1211.49C489.242 1230.09 461.342 1254.69 443.942 1266.69C440.942 1268.39 437.842 1269.99 434.642 1271.19C433.042 1271.79 431.442 1272.29 429.742 1272.79C428.142 1273.19 426.442 1273.59 424.842 1273.79C418.742 1275.19 413.442 1274.29 407.842 1269.29C406.542 1268.29 405.442 1267.09 404.242 1265.89Z" fill="white"/>
</svg>
