<svg width="56" height="10" viewBox="0 0 56 10" fill="none" xmlns="http://www.w3.org/2000/svg">
<path d="M1 1.19583C1.51227 1.13943 2.99254 1.06892 4.39156 2.08426C6.14033 3.35344 9.95583 5.84948 14.9372 2.29579C17.6398 0.367722 20.8194 0.906952 23.0451 2.29579C24.7939 3.38702 28.5988 5.71411 33.0079 2.29579C34.4718 1.16078 37.8832 0.0608302 41.2748 2.29579C42.9529 3.60727 47.2312 5.44335 50.9195 2.29579C51.3788 1.90093 52.8379 1.13661 55 1.23814" stroke="white" stroke-width="2"/>
<path d="M1 6.07029C1.51227 6.01388 2.99254 5.94337 4.39156 6.95872C6.14033 8.22789 9.95583 10.7239 14.9372 7.17024C17.6398 5.24218 20.8194 5.78141 23.0451 7.17024C24.7939 8.26147 28.5988 10.5886 33.0079 7.17024C34.4718 6.03524 37.8832 4.93529 41.2748 7.17024C42.9529 8.48173 47.2312 10.3178 50.9195 7.17024C51.3788 6.77539 52.8379 6.01106 55 6.1126" stroke="#FFD36A" stroke-width="2"/>
</svg>
