<svg width="162" height="45" fill="none" xmlns="http://www.w3.org/2000/svg"><path d="M6.366 20.566l4.64-3.417V5.673h14.188V1.934H6.366v18.632zM.5 45h19.1l5.116-3.74H5.14V26.176h14.393l5.184-3.74H5.14V2.643L.5 6.06V45zm11.733-34.62h7.299l5.184-3.74H12.233v3.74zM6.844 21.468h18.35V17.73H11.96l-5.116 3.74zm-.478 18.826h18.828v-3.74H11.005v-9.412H6.366v13.152z" fill="#A065D5"/><path d="M.5 45h19.1l5.116-3.74H5.14V26.176h14.393l5.184-3.74H5.14V2.643L.5 6.06V45zm11.733-34.62h7.3l5.183-3.74H12.233v3.74z" fill="#B88CE0"/><path d="M31.977 12.056h15.485c4.775 0 7.503 1.998 7.503 7.543v2.837h-8.868c-5.593 0-8.731 3.094-8.731 8.639v3.61c0 4.32 2.32 5.609 5.253 5.609h5.252v-3.74h-2.32c-2.25 0-3.546-1.224-3.546-3.288v-3.803c0-2.063 1.296-3.288 3.547-3.288h9.413V44.29l4.64-3.417V18.825c0-6.962-3.89-10.508-11.12-10.508H37.161l-5.184 3.739zm-.477 4.706h14.052c2.25 0 3.547.903 3.547 3.546v1.16h4.639v-1.87c0-4.899-2.115-6.575-6.276-6.575H31.499v3.74zm0 18.954C31.5 41.39 34.092 45 42.618 45h11.119V28.173l-4.639 3.353v9.735h-6.48c-3.48 0-6.48-1.74-6.48-6.576v-3.61c0-4.062 1.636-6.899 4.501-8.382l-.068-.129c-6.48.71-9.073 4.384-9.073 9.155v3.997zm11.733-4.835h5.047l5.117-3.74h-7.845c-1.57 0-2.32.839-2.32 2.322v1.418z" fill="#A065D5"/><path d="M31.5 16.762h14.052c2.25 0 3.547.903 3.547 3.546v1.16h4.639v-1.87c0-4.899-2.115-6.575-6.276-6.575H31.499v3.74zm0 18.954C31.5 41.39 34.092 45 42.618 45h11.119V28.173l-4.639 3.353v9.735h-6.48c-3.48 0-6.48-1.74-6.48-6.576v-3.61c0-4.062 1.636-6.899 4.501-8.382l-.068-.129c-6.48.71-9.073 4.384-9.073 9.155v3.997zm11.733-4.835h5.047l5.117-3.74h-7.845c-1.57 0-2.32.839-2.32 2.322v1.418zM71.366 44.29l4.639-3.416V0h-4.639v44.29zM65.5 45h4.638V.967L65.5 4.384V45z" fill="#B88CE0"/><path d="M71.366 44.29l4.639-3.416V0h-4.639v44.29zm11.612-32.234h15.484c4.775 0 7.504 1.998 7.504 7.543v2.837h-8.868c-5.594 0-8.731 3.094-8.731 8.639v3.61c0 4.32 2.319 5.609 5.252 5.609h5.253v-3.74h-2.32c-2.25 0-3.547-1.224-3.547-3.288v-3.803c0-2.063 1.296-3.288 3.547-3.288h9.414V44.29l4.639-3.417V18.825c0-6.962-3.889-10.508-11.12-10.508H88.163l-5.184 3.739zm-.478 4.706h14.052c2.251 0 3.548.903 3.548 3.546v1.16h4.638v-1.87c0-4.899-2.115-6.575-6.276-6.575H82.5v3.74zm0 18.954C82.5 41.39 85.092 45 93.62 45h11.118V28.173l-4.638 3.353v9.735h-6.48c-3.48 0-6.481-1.74-6.481-6.576v-3.61c0-4.062 1.637-6.899 4.502-8.382l-.068-.129c-6.48.71-9.073 4.384-9.073 9.155v3.997zm11.733-4.835h5.048l5.116-3.74h-7.845c-1.569 0-2.319.839-2.319 2.322v1.418z" fill="#A065D5"/><path d="M82.5 16.762h14.052c2.251 0 3.548.903 3.548 3.546v1.16h4.638v-1.87c0-4.899-2.114-6.575-6.276-6.575H82.5v3.74zm0 18.954C82.5 41.39 85.092 45 93.62 45h11.118V28.173l-4.638 3.353v9.735h-6.48c-3.48 0-6.481-1.74-6.481-6.576v-3.61c0-4.062 1.637-6.899 4.502-8.382l-.068-.129c-6.48.71-9.073 4.384-9.073 9.155v3.997zm11.733-4.835h5.048l5.116-3.74h-7.845c-1.569 0-2.319.839-2.319 2.322v1.418zM122.366 6.64l4.639-3.416V0h-4.639v6.64zm-5.866.71h4.639V.967L116.5 4.384V7.35zm5.866 36.94l4.639-3.416V8.317h-4.639V44.29zM116.5 45h4.639V9.284L116.5 12.7V45z" fill="#B88CE0"/><path d="M122.367 6.64l4.638-3.416V0h-4.638v6.64zm0 37.65l4.638-3.416V8.317h-4.638V44.29z" fill="#A065D5"/><path d="M133.5 45h4.639V18.89c0-5.223 2.183-8.897 6.412-10.445l-.068-.129c-7.095.065-10.983 3.675-10.983 10.574V45zm5.866-.71l4.639-3.416V18.632c0-4.836 2.456-6.576 6.481-6.576 4.092 0 6.48 2.256 6.48 7.156V44.29l4.639-3.417V18.825c0-6.963-3.889-10.509-11.119-10.509-7.231 0-11.12 3.61-11.12 10.574v25.4zm6.072-26.819c.477-.516 1.091-.709 2.114-.709 2.388 0 3.547.902 3.547 3.546V45h4.639V19.212c0-4.255-1.773-6.19-5.252-6.19-3.07 0-4.707 1.226-5.185 4.385l.137.064z" fill="#B88CE0"/><path d="M139.366 44.29l4.639-3.416V18.632c0-4.836 2.456-6.576 6.481-6.576 4.092 0 6.48 2.256 6.48 7.156V44.29l4.639-3.417V18.825c0-6.963-3.889-10.509-11.119-10.509-7.231 0-11.12 3.61-11.12 10.574v25.4z" fill="#A065D5"/></svg>